# xmcd
#
# Track frame offsets: 
#        150
#        35437
#        55243
#        80276
#        93771
#        110602
#        125567
#        155076
#        170051
#        198429
#
# Disc length: 2794 seconds
#
# Revision: 0
# Processed by: cddbd v1.5.2PL0 Copyright (c) Steve Scherf et al.
# Submitted via: ExactAudioCopy v0.99pb5
#
DISCID=820ae80a
DTITLE=THE CLIMAX BLUES BAND - THE CLIMAX CHICAGO BLUES BAND PLAYS ON
DYEAR=1969
DGENRE=Blues Rock
TTITLE0=Flight
TTITLE1=Hey Baby Everything's Gonna Be Alright
TTITLE2=Cubano Chant
TTITLE3=Little Girl
TTITLE4=Mum's The Word
TTITLE5=Twenty Past Two/Temptation Rag
TTITLE6=So Many Roads
TTITLE7=City Ways
TTITLE8=Crazy 'Bout My Baby
TTITLE9=Loving Machine
EXTD=
EXTT0=
EXTT1=
EXTT2=
EXTT3=
EXTT4=
EXTT5=
EXTT6=
EXTT7=
EXTT8=
EXTT9=
PLAYORDER=
